<mxfile host="app.diagrams.net" modified="2023-06-22T02:27:16.857Z" agent="5.0 (Windows NT 10.0; Win64; x64) AppleWebKit/537.36 (KHTML, like Gecko) Chrome/114.0.0.0 Safari/537.36" etag="KMIe5EityAAjrAF7lpKw" version="20.3.6" type="github">
  <diagram id="C5RBs43oDa-KdzZeNtuy" name="Page-1">
    <mxGraphModel dx="920" dy="2867" grid="1" gridSize="10" guides="1" tooltips="1" connect="1" arrows="1" fold="1" page="1" pageScale="1" pageWidth="827" pageHeight="1169" math="0" shadow="0">
      <root>
        <mxCell id="WIyWlLk6GJQsqaUBKTNV-0" />
        <mxCell id="WIyWlLk6GJQsqaUBKTNV-1" parent="WIyWlLk6GJQsqaUBKTNV-0" />
        <mxCell id="Z7Yrzfe9HdPFtSMXLCdJ-31" style="edgeStyle=orthogonalEdgeStyle;rounded=0;orthogonalLoop=1;jettySize=auto;html=1;entryX=0.5;entryY=0;entryDx=0;entryDy=0;endArrow=classic;endFill=1;" edge="1" parent="WIyWlLk6GJQsqaUBKTNV-1" source="Z7Yrzfe9HdPFtSMXLCdJ-3">
          <mxGeometry relative="1" as="geometry">
            <mxPoint x="413" y="-2050" as="targetPoint" />
          </mxGeometry>
        </mxCell>
        <mxCell id="Z7Yrzfe9HdPFtSMXLCdJ-32" style="edgeStyle=orthogonalEdgeStyle;rounded=0;orthogonalLoop=1;jettySize=auto;html=1;entryX=0.5;entryY=0;entryDx=0;entryDy=0;endArrow=classic;endFill=1;" edge="1" parent="WIyWlLk6GJQsqaUBKTNV-1" source="Z7Yrzfe9HdPFtSMXLCdJ-3">
          <mxGeometry relative="1" as="geometry">
            <mxPoint x="180" y="-2050" as="targetPoint" />
          </mxGeometry>
        </mxCell>
        <mxCell id="Z7Yrzfe9HdPFtSMXLCdJ-3" value="Usuário" style="swimlane;fontStyle=0;childLayout=stackLayout;horizontal=1;startSize=26;fillColor=none;horizontalStack=0;resizeParent=1;resizeParentMax=0;resizeLast=0;collapsible=1;marginBottom=0;" vertex="1" parent="WIyWlLk6GJQsqaUBKTNV-1">
          <mxGeometry x="344" y="-2270" width="140" height="132" as="geometry" />
        </mxCell>
        <mxCell id="Z7Yrzfe9HdPFtSMXLCdJ-4" value="- login: string&#xa;&#xa;- senha: string&#xa;" style="text;strokeColor=none;fillColor=none;align=left;verticalAlign=top;spacingLeft=4;spacingRight=4;overflow=hidden;rotatable=0;points=[[0,0.5],[1,0.5]];portConstraint=eastwest;" vertex="1" parent="Z7Yrzfe9HdPFtSMXLCdJ-3">
          <mxGeometry y="26" width="140" height="54" as="geometry" />
        </mxCell>
        <mxCell id="Z7Yrzfe9HdPFtSMXLCdJ-8" value="" style="endArrow=none;dashed=1;html=1;dashPattern=1 3;strokeWidth=2;rounded=0;" edge="1" parent="Z7Yrzfe9HdPFtSMXLCdJ-3">
          <mxGeometry width="50" height="50" relative="1" as="geometry">
            <mxPoint x="5" y="79" as="sourcePoint" />
            <mxPoint x="135" y="79" as="targetPoint" />
            <Array as="points" />
          </mxGeometry>
        </mxCell>
        <mxCell id="Z7Yrzfe9HdPFtSMXLCdJ-5" value="+  fazerlogin ( ) : void" style="text;strokeColor=none;fillColor=none;align=left;verticalAlign=top;spacingLeft=4;spacingRight=4;overflow=hidden;rotatable=0;points=[[0,0.5],[1,0.5]];portConstraint=eastwest;" vertex="1" parent="Z7Yrzfe9HdPFtSMXLCdJ-3">
          <mxGeometry y="80" width="140" height="26" as="geometry" />
        </mxCell>
        <mxCell id="Z7Yrzfe9HdPFtSMXLCdJ-6" value="+  fazerlogout ( ) : void" style="text;strokeColor=none;fillColor=none;align=left;verticalAlign=top;spacingLeft=4;spacingRight=4;overflow=hidden;rotatable=0;points=[[0,0.5],[1,0.5]];portConstraint=eastwest;" vertex="1" parent="Z7Yrzfe9HdPFtSMXLCdJ-3">
          <mxGeometry y="106" width="140" height="26" as="geometry" />
        </mxCell>
        <mxCell id="Z7Yrzfe9HdPFtSMXLCdJ-34" style="edgeStyle=orthogonalEdgeStyle;rounded=0;orthogonalLoop=1;jettySize=auto;html=1;entryX=0.5;entryY=0;entryDx=0;entryDy=0;endArrow=classic;endFill=1;" edge="1" parent="WIyWlLk6GJQsqaUBKTNV-1" source="Z7Yrzfe9HdPFtSMXLCdJ-4">
          <mxGeometry relative="1" as="geometry">
            <mxPoint x="660" y="-2050" as="targetPoint" />
            <Array as="points">
              <mxPoint x="660" y="-2200" />
            </Array>
          </mxGeometry>
        </mxCell>
        <mxCell id="Z7Yrzfe9HdPFtSMXLCdJ-37" value="Classname" style="swimlane;fontStyle=1;align=center;verticalAlign=top;childLayout=stackLayout;horizontal=1;startSize=26;horizontalStack=0;resizeParent=1;resizeParentMax=0;resizeLast=0;collapsible=1;marginBottom=0;" vertex="1" parent="WIyWlLk6GJQsqaUBKTNV-1">
          <mxGeometry x="290" y="-2080" width="270" height="212" as="geometry" />
        </mxCell>
        <mxCell id="Z7Yrzfe9HdPFtSMXLCdJ-38" value="+ field: type" style="text;strokeColor=none;fillColor=none;align=left;verticalAlign=top;spacingLeft=4;spacingRight=4;overflow=hidden;rotatable=0;points=[[0,0.5],[1,0.5]];portConstraint=eastwest;" vertex="1" parent="Z7Yrzfe9HdPFtSMXLCdJ-37">
          <mxGeometry y="26" width="270" height="84" as="geometry" />
        </mxCell>
        <mxCell id="Z7Yrzfe9HdPFtSMXLCdJ-39" value="" style="line;strokeWidth=1;fillColor=none;align=left;verticalAlign=middle;spacingTop=-1;spacingLeft=3;spacingRight=3;rotatable=0;labelPosition=right;points=[];portConstraint=eastwest;strokeColor=inherit;" vertex="1" parent="Z7Yrzfe9HdPFtSMXLCdJ-37">
          <mxGeometry y="110" width="270" height="8" as="geometry" />
        </mxCell>
        <mxCell id="Z7Yrzfe9HdPFtSMXLCdJ-40" value="+ method(type): type" style="text;strokeColor=none;fillColor=none;align=left;verticalAlign=top;spacingLeft=4;spacingRight=4;overflow=hidden;rotatable=0;points=[[0,0.5],[1,0.5]];portConstraint=eastwest;" vertex="1" parent="Z7Yrzfe9HdPFtSMXLCdJ-37">
          <mxGeometry y="118" width="270" height="94" as="geometry" />
        </mxCell>
      </root>
    </mxGraphModel>
  </diagram>
</mxfile>
